<svg xmlns="http://www.w3.org/2000/svg" xmlns:xlink="http://www.w3.org/1999/xlink" width="2000" zoomAndPan="magnify" viewBox="0 0 1500 1499.999933" height="2000" preserveAspectRatio="xMidYMid meet" version="1.0"><path fill="#ffffff" d="M 222.199219 485.332031 L 489.167969 485.332031 C 488.386719 491.050781 487.65625 496.820312 487.242188 502.679688 C 486.417969 513.804688 490.265625 524.882812 497.816406 533.027344 C 505.371094 541.175781 516.128906 545.847656 527.296875 545.847656 L 972.703125 545.847656 C 983.871094 545.847656 994.628906 541.175781 1002.183594 533.027344 C 1009.734375 524.882812 1013.582031 513.804688 1012.757812 502.679688 C 1012.296875 496.820312 1011.613281 491.050781 1010.789062 485.332031 L 1277.800781 485.332031 C 1288.375 485.332031 1298.582031 480.890625 1305.769531 473.152344 C 1312.957031 465.417969 1316.621094 454.933594 1315.839844 444.359375 C 1308.976562 352.898438 1249.191406 276.359375 1168.074219 243.996094 C 1199.433594 218.773438 1219.527344 180.140625 1219.527344 136.878906 C 1219.574219 61.074219 1157.867188 -0.585938 1082.0625 -0.585938 C 1006.300781 -0.585938 944.59375 61.074219 944.59375 136.878906 C 944.59375 180.140625 964.691406 218.773438 996.046875 243.996094 C 960.984375 257.914062 929.441406 280.253906 904.402344 309.410156 C 885.132812 295.402344 863.9375 283.914062 841.371094 275.492188 C 878.859375 247.523438 903.167969 202.84375 903.167969 152.582031 C 903.167969 68.125 834.457031 -0.585938 750 -0.585938 C 665.542969 -0.585938 596.832031 68.125 596.832031 152.582031 C 596.832031 202.84375 621.140625 247.523438 658.628906 275.492188 C 636.0625 283.914062 614.867188 295.402344 595.597656 309.410156 C 570.554688 280.253906 539.015625 257.914062 503.953125 243.996094 C 535.308594 218.773438 555.40625 180.140625 555.40625 136.878906 C 555.40625 61.074219 493.699219 -0.585938 417.9375 -0.585938 C 342.132812 -0.585938 280.425781 61.074219 280.425781 136.878906 C 280.425781 180.140625 300.566406 218.773438 331.878906 243.996094 C 250.808594 276.359375 191.023438 352.898438 184.160156 444.316406 C 183.335938 454.890625 186.996094 465.417969 194.183594 473.152344 C 201.371094 480.890625 211.578125 485.332031 222.199219 485.332031 Z M 991.46875 136.878906 C 991.46875 86.9375 1032.121094 46.289062 1082.0625 46.289062 C 1132.050781 46.289062 1172.699219 86.9375 1172.699219 136.878906 C 1172.699219 186.824219 1132.050781 227.472656 1082.109375 227.472656 C 1082.109375 227.472656 1082.109375 227.472656 1082.0625 227.472656 C 1032.121094 227.472656 991.46875 186.824219 991.46875 136.878906 Z M 1082.0625 274.347656 L 1082.109375 274.347656 C 1176.542969 274.394531 1256.46875 345.710938 1268.1875 438.457031 L 999.664062 438.457031 C 987.074219 401.285156 966.339844 367.867188 939.742188 340.171875 C 975.3125 298.652344 1027.175781 274.347656 1082.0625 274.347656 Z M 643.707031 152.582031 C 643.707031 93.988281 691.359375 46.289062 750 46.289062 C 808.640625 46.289062 856.292969 93.988281 856.292969 152.582031 C 856.292969 211.222656 808.640625 258.921875 750 258.921875 C 691.359375 258.921875 643.707031 211.222656 643.707031 152.582031 Z M 965.378906 498.972656 L 534.621094 498.972656 C 546.476562 390.070312 639.726562 305.796875 750 305.796875 C 860.273438 305.796875 953.523438 390.070312 965.378906 498.972656 Z M 327.300781 136.878906 C 327.300781 86.9375 367.949219 46.289062 417.9375 46.289062 C 467.878906 46.289062 508.53125 86.9375 508.53125 136.878906 C 508.53125 186.824219 467.878906 227.472656 417.9375 227.472656 C 417.890625 227.472656 417.890625 227.472656 417.890625 227.472656 C 367.949219 227.472656 327.300781 186.824219 327.300781 136.878906 Z M 417.890625 274.347656 L 417.9375 274.347656 C 472.824219 274.347656 524.6875 298.652344 560.257812 340.171875 C 533.660156 367.867188 512.96875 401.285156 500.335938 438.457031 L 231.855469 438.457031 C 243.53125 345.710938 323.5 274.394531 417.890625 274.347656 Z M 1477.570312 1114.753906 L 1376.679688 608.285156 C 1374.113281 595.421875 1366.652344 584.253906 1355.710938 576.972656 C 1344.726562 569.648438 1331.632812 566.996094 1318.726562 569.558594 L 1188.902344 595.421875 C 1175.996094 598.03125 1164.871094 605.449219 1157.546875 616.433594 C 1150.222656 627.375 1147.613281 640.511719 1150.175781 653.421875 L 1151.320312 659.144531 C 1073.777344 684.777344 979.523438 691.917969 862.335938 595.238281 C 808.503906 550.835938 738.328125 549.371094 687.742188 591.621094 L 635.375 635.339844 L 350.007812 635.339844 C 346.574219 615.882812 331.605469 599.542969 311.097656 595.421875 L 181.273438 569.558594 C 168.410156 566.996094 155.273438 569.648438 144.289062 576.972656 C 133.347656 584.253906 125.886719 595.421875 123.320312 608.285156 L 22.429688 1114.753906 C 19.867188 1127.617188 22.476562 1140.757812 29.800781 1151.695312 C 37.125 1162.683594 48.25 1170.144531 61.113281 1172.707031 L 190.980469 1198.570312 C 194.183594 1199.210938 197.433594 1199.53125 200.636719 1199.53125 C 210.296875 1199.53125 219.726562 1196.695312 227.921875 1191.203125 C 238.90625 1183.878906 246.367188 1172.753906 248.933594 1159.84375 L 249.296875 1157.875 L 556.503906 1465.035156 C 575.5 1484.078125 600.539062 1493.601562 625.535156 1493.601562 C 650.527344 1493.601562 675.523438 1484.078125 694.566406 1465.035156 C 707.382812 1452.21875 716.21875 1436.378906 720.335938 1419.078125 L 762.40625 1461.144531 C 800.445312 1499.183594 862.382812 1499.183594 900.46875 1461.144531 C 913.605469 1448.007812 922.210938 1431.984375 926.238281 1415.140625 C 944.457031 1432.441406 968.214844 1441.964844 993.574219 1441.964844 C 1019.714844 1441.964844 1044.203125 1431.800781 1062.605469 1413.445312 C 1083.574219 1392.480469 1093.003906 1364.234375 1090.851562 1336.726562 C 1093.367188 1336.953125 1095.933594 1337.046875 1098.496094 1337.046875 C 1124.589844 1337.046875 1149.125 1326.929688 1167.527344 1308.527344 C 1193.160156 1282.847656 1201.996094 1244.578125 1191.558594 1210.472656 L 1249.601562 1152.429688 L 1251.066406 1159.84375 C 1253.632812 1172.753906 1261.09375 1183.878906 1272.078125 1191.203125 C 1280.273438 1196.695312 1289.703125 1199.53125 1299.363281 1199.53125 C 1302.566406 1199.53125 1305.816406 1199.210938 1309.019531 1198.570312 L 1438.886719 1172.707031 C 1451.75 1170.144531 1462.875 1162.683594 1470.199219 1151.695312 C 1477.523438 1140.757812 1480.132812 1127.617188 1477.570312 1114.753906 Z M 201.917969 1152.199219 C 201.507812 1152.476562 200.867188 1152.75 200.132812 1152.613281 L 70.265625 1126.703125 C 69.535156 1126.566406 69.03125 1126.0625 68.800781 1125.695312 C 68.527344 1125.285156 68.253906 1124.6875 68.390625 1123.910156 L 169.28125 617.441406 C 169.464844 616.664062 169.921875 616.203125 170.332031 615.929688 C 170.65625 615.746094 171.113281 615.519531 171.660156 615.519531 C 171.796875 615.519531 171.980469 615.519531 172.121094 615.5625 L 301.941406 641.425781 C 303.222656 641.65625 304.09375 642.984375 303.863281 644.21875 L 202.925781 1150.691406 C 202.789062 1151.46875 202.285156 1151.925781 201.917969 1152.199219 Z M 1134.339844 1275.382812 C 1124.816406 1284.90625 1112.089844 1290.171875 1098.449219 1290.171875 C 1084.855469 1290.171875 1072.128906 1284.90625 1062.605469 1275.382812 L 841.691406 1054.511719 C 832.535156 1045.359375 817.703125 1045.359375 808.546875 1054.511719 C 799.394531 1063.621094 799.394531 1078.5 808.546875 1087.65625 L 1029.417969 1308.527344 C 1049.238281 1328.300781 1049.238281 1360.484375 1029.464844 1380.304688 C 1019.898438 1389.824219 1007.171875 1395.042969 993.574219 1395.042969 C 979.933594 1395.042969 967.207031 1389.824219 957.6875 1380.304688 L 724.273438 1146.890625 C 715.117188 1137.734375 700.285156 1137.734375 691.132812 1146.890625 C 681.976562 1156.046875 681.976562 1170.878906 691.132812 1180.03125 L 867.277344 1356.226562 L 867.371094 1356.316406 C 887.101562 1376.09375 887.054688 1408.226562 867.324219 1427.957031 C 847.503906 1447.730469 815.324219 1447.777344 795.546875 1427.957031 L 606.855469 1239.3125 C 597.703125 1230.15625 582.871094 1230.15625 573.714844 1239.3125 C 564.558594 1248.421875 564.558594 1263.300781 573.714844 1272.453125 L 661.421875 1360.117188 C 661.421875 1360.164062 661.421875 1360.164062 661.421875 1360.164062 C 670.945312 1369.683594 676.164062 1382.410156 676.164062 1396.003906 C 676.164062 1409.644531 670.945312 1422.371094 661.421875 1431.894531 C 641.601562 1451.667969 609.421875 1451.667969 589.644531 1431.894531 L 260.332031 1102.625 L 344.054688 682.214844 L 579.207031 682.214844 L 513.65625 736.960938 C 484.542969 761.269531 472.046875 794.457031 479.324219 827.964844 L 532.148438 1069.941406 C 533.476562 1076.121094 537.277344 1081.523438 542.632812 1084.863281 C 548.035156 1088.203125 554.535156 1089.210938 560.667969 1087.703125 C 624.253906 1072.046875 666.777344 1041.375 690.671875 993.953125 C 711.320312 953.027344 715.4375 906.472656 719.742188 857.261719 C 720.292969 850.992188 720.839844 844.71875 721.433594 838.402344 C 721.480469 838.082031 721.527344 837.855469 721.574219 837.671875 C 729.949219 834.785156 768.585938 843.164062 826.675781 895.945312 L 1144.59375 1218.484375 C 1153.199219 1237.574219 1149.167969 1260.554688 1134.339844 1275.382812 Z M 1164.183594 1171.5625 L 859.589844 862.574219 C 859.3125 862.253906 858.992188 861.976562 858.71875 861.703125 C 797.652344 806.085938 740.113281 780.726562 704.726562 793.953125 C 687.972656 800.179688 677.078125 814.460938 674.882812 833.140625 C 674.835938 833.320312 674.835938 833.503906 674.835938 833.6875 C 674.195312 840.1875 673.644531 846.6875 673.050781 853.144531 C 665.40625 940.117188 659.730469 1004.800781 572.570312 1035.378906 L 525.144531 817.988281 C 520.386719 796.242188 534.714844 780.449219 543.6875 772.941406 L 717.773438 627.601562 C 750.503906 600.273438 796.601562 601.785156 832.488281 631.402344 C 964.691406 740.441406 1075.425781 732.386719 1160.566406 705.421875 L 1238.570312 1097.132812 Z M 1431.199219 1125.695312 C 1430.96875 1126.0625 1430.464844 1126.566406 1429.734375 1126.703125 L 1299.867188 1152.613281 C 1299.085938 1152.75 1298.492188 1152.476562 1298.082031 1152.199219 C 1297.714844 1151.925781 1297.210938 1151.46875 1297.074219 1150.691406 L 1196.136719 644.21875 C 1196 643.488281 1196.273438 642.847656 1196.546875 642.433594 C 1196.824219 642.070312 1197.28125 641.566406 1198.058594 641.425781 L 1327.878906 615.5625 C 1328.019531 615.519531 1328.203125 615.519531 1328.339844 615.519531 C 1328.886719 615.519531 1329.34375 615.746094 1329.667969 615.929688 C 1330.078125 616.203125 1330.535156 616.664062 1330.71875 617.441406 L 1431.609375 1123.910156 C 1431.746094 1124.6875 1431.472656 1125.285156 1431.199219 1125.695312 Z M 1431.199219 1125.695312 " fill-opacity="1" fill-rule="nonzero"/></svg>