<svg xmlns="http://www.w3.org/2000/svg" xmlns:xlink="http://www.w3.org/1999/xlink" width="2000" zoomAndPan="magnify" viewBox="0 0 1500 1499.999933" height="2000" preserveAspectRatio="xMidYMid meet" version="1.0"><path fill="#0e351c" d="M 1313.710938 21.289062 C 1300.160156 7.742188 1281.289062 0 1262.421875 0 C 1243.066406 0 1224.675781 7.742188 1211.128906 21.289062 L 656.128906 575.804688 C 643.546875 588.386719 636.292969 605.324219 635.324219 623.226562 L 625.644531 797.902344 C 624.675781 818.222656 632.417969 838.546875 646.933594 853.066406 C 660.484375 866.613281 678.871094 874.355469 698.226562 874.355469 L 702.097656 874.355469 L 876.773438 864.675781 C 894.191406 863.707031 911.128906 855.96875 923.710938 843.386719 L 1478.710938 289.355469 C 1492.257812 275.324219 1500 256.933594 1500 238.0625 C 1500 218.707031 1492.257812 200.324219 1478.710938 186.289062 Z M 1313.710938 21.289062 " fill-opacity="1" fill-rule="nonzero"/><path fill="#0e351c" d="M 245.054688 1500 L 1049.960938 1500 C 1185.105469 1500 1295.015625 1390.066406 1295.015625 1254.945312 L 1295.015625 758.765625 C 1295.015625 718.671875 1262.503906 686.183594 1222.433594 686.183594 C 1182.363281 686.183594 1149.855469 718.671875 1149.855469 758.765625 L 1149.855469 1254.945312 C 1149.855469 1310.019531 1105.058594 1354.839844 1049.960938 1354.839844 L 245.054688 1354.839844 C 189.957031 1354.839844 145.160156 1310.019531 145.160156 1254.945312 L 145.160156 450.039062 C 145.160156 394.964844 189.957031 350.144531 245.054688 350.144531 L 741.257812 350.144531 C 781.328125 350.144531 813.839844 317.660156 813.839844 277.5625 C 813.839844 237.46875 781.328125 204.984375 741.257812 204.984375 L 245.054688 204.984375 C 109.910156 204.984375 0 314.917969 0 450.039062 L 0 1254.945312 C 0 1390.066406 109.910156 1500 245.054688 1500 Z M 245.054688 1500 " fill-opacity="1" fill-rule="nonzero"/></svg>