<svg xmlns="http://www.w3.org/2000/svg" xmlns:xlink="http://www.w3.org/1999/xlink" width="2000" zoomAndPan="magnify" viewBox="0 0 1500 1499.999933" height="2000" preserveAspectRatio="xMidYMid meet" version="1.0"><defs><clipPath id="e613c3955e"><path d="M 151 660 L 1349 660 L 1349 1431.9375 L 151 1431.9375 Z M 151 660 " clip-rule="nonzero"/></clipPath></defs><g clip-path="url(#e613c3955e)"><path fill="#ffffff" d="M 1284.007812 1431.636719 L 930.777344 1431.636719 C 899.820312 1431.636719 874.632812 1406.441406 874.632812 1375.476562 L 874.632812 992.398438 C 874.632812 925.296875 820.054688 870.703125 752.96875 870.703125 L 746.964844 870.703125 C 679.882812 870.703125 625.304688 925.296875 625.304688 992.398438 L 625.304688 1375.476562 C 625.304688 1406.445312 600.117188 1431.636719 569.160156 1431.636719 L 215.9375 1431.636719 C 180.46875 1431.636719 151.613281 1402.769531 151.613281 1367.292969 L 151.613281 693.46875 C 151.613281 675.464844 166.207031 660.875 184.199219 660.875 C 202.195312 660.875 216.789062 675.464844 216.789062 693.46875 L 216.789062 1366.445312 L 560.136719 1366.445312 L 560.136719 992.402344 C 560.136719 889.351562 643.949219 805.511719 746.972656 805.511719 L 752.976562 805.511719 C 855.996094 805.511719 939.816406 889.351562 939.816406 992.402344 L 939.816406 1366.445312 L 1283.160156 1366.445312 L 1283.160156 694.746094 C 1283.160156 676.746094 1297.753906 662.152344 1315.746094 662.152344 C 1333.742188 662.152344 1348.335938 676.746094 1348.335938 694.746094 L 1348.335938 1367.292969 C 1348.335938 1402.769531 1319.476562 1431.636719 1284.011719 1431.636719 Z M 1284.007812 1431.636719 " fill-opacity="1" fill-rule="nonzero"/></g><path fill="#ffffff" d="M 1463.09375 678.597656 C 1456.226562 678.597656 1449.296875 676.433594 1443.402344 671.953125 L 749.839844 144.746094 L 56.546875 671.886719 C 42.21875 682.789062 21.773438 679.992188 10.882812 665.664062 C -0.0117188 651.332031 2.777344 630.882812 17.101562 619.988281 L 730.117188 77.851562 C 741.773438 68.988281 757.902344 68.988281 769.558594 77.851562 L 1482.839844 620.050781 C 1497.167969 630.941406 1499.957031 651.390625 1489.066406 665.726562 C 1482.65625 674.164062 1472.933594 678.601562 1463.09375 678.601562 Z M 1463.09375 678.597656 " fill-opacity="1" fill-rule="nonzero"/></svg>