<svg xmlns="http://www.w3.org/2000/svg" xmlns:xlink="http://www.w3.org/1999/xlink" width="2000" zoomAndPan="magnify" viewBox="0 0 1500 1499.999933" height="2000" preserveAspectRatio="xMidYMid meet" version="1.0"><defs><clipPath id="27f64373ab"><path d="M 488 994 L 1238.660156 994 L 1238.660156 1107 L 488 1107 Z M 488 994 " clip-rule="nonzero"/></clipPath><clipPath id="77a161db60"><path d="M 261.410156 975 L 415 975 L 415 1124.117188 L 261.410156 1124.117188 Z M 261.410156 975 " clip-rule="nonzero"/></clipPath><clipPath id="6526bf4400"><path d="M 488 694 L 1238.660156 694 L 1238.660156 807 L 488 807 Z M 488 694 " clip-rule="nonzero"/></clipPath><clipPath id="5231acb4a5"><path d="M 261.410156 676 L 415 676 L 415 826 L 261.410156 826 Z M 261.410156 676 " clip-rule="nonzero"/></clipPath><clipPath id="09c524c82b"><path d="M 488 394 L 1238.660156 394 L 1238.660156 507 L 488 507 Z M 488 394 " clip-rule="nonzero"/></clipPath><clipPath id="001aa3cd75"><path d="M 261.410156 375.617188 L 415 375.617188 L 415 526 L 261.410156 526 Z M 261.410156 375.617188 " clip-rule="nonzero"/></clipPath></defs><path fill="#ffffff" d="M 250 0 C 112.664062 0 0 112.664062 0 250 L 0 1250 C 0 1387.335938 112.664062 1500 250 1500 L 1250 1500 C 1387.335938 1500 1500 1387.335938 1500 1250 L 1500 250 C 1500 112.664062 1387.335938 0 1250 0 Z M 250 71.429688 L 1250 71.429688 C 1348.375 71.429688 1428.570312 151.625 1428.570312 250 L 1428.570312 1250 C 1428.570312 1348.375 1348.375 1428.570312 1250 1428.570312 L 250 1428.570312 C 151.625 1428.570312 71.429688 1348.375 71.429688 1250 L 71.429688 250 C 71.429688 151.625 151.625 71.429688 250 71.429688 Z M 250 71.429688 " fill-opacity="1" fill-rule="nonzero"/><g clip-path="url(#27f64373ab)"><path fill="#ffffff" d="M 1238.578125 1050.902344 C 1238.578125 1020.007812 1213.53125 994.960938 1182.636719 994.960938 L 544.867188 994.960938 C 513.972656 994.960938 488.917969 1020.007812 488.917969 1050.902344 C 488.917969 1081.804688 513.972656 1106.855469 544.867188 1106.855469 L 1182.636719 1106.855469 C 1213.53125 1106.855469 1238.578125 1081.804688 1238.578125 1050.902344 " fill-opacity="1" fill-rule="nonzero"/></g><g clip-path="url(#77a161db60)"><path fill="#ffffff" d="M 336.003906 1124.25 L 339.738281 1124.25 C 380.929688 1124.25 414.324219 1090.851562 414.324219 1049.660156 C 414.324219 1008.464844 380.929688 975.066406 339.738281 975.066406 L 336.003906 975.066406 C 294.8125 975.066406 261.410156 1008.464844 261.410156 1049.660156 C 261.410156 1090.851562 294.8125 1124.25 336.003906 1124.25 " fill-opacity="1" fill-rule="nonzero"/></g><g clip-path="url(#6526bf4400)"><path fill="#ffffff" d="M 1182.636719 694.726562 L 544.867188 694.726562 C 513.972656 694.726562 488.917969 719.765625 488.917969 750.667969 C 488.917969 781.570312 513.972656 806.617188 544.867188 806.617188 L 1182.636719 806.617188 C 1213.53125 806.617188 1238.578125 781.570312 1238.578125 750.667969 C 1238.578125 719.765625 1213.53125 694.726562 1182.636719 694.726562 " fill-opacity="1" fill-rule="nonzero"/></g><g clip-path="url(#5231acb4a5)"><path fill="#ffffff" d="M 339.738281 676.074219 L 336.003906 676.074219 C 294.8125 676.074219 261.410156 709.472656 261.410156 750.667969 C 261.410156 791.863281 294.8125 825.261719 336.003906 825.261719 L 339.738281 825.261719 C 380.929688 825.261719 414.324219 791.863281 414.324219 750.667969 C 414.324219 709.472656 380.929688 676.074219 339.738281 676.074219 " fill-opacity="1" fill-rule="nonzero"/></g><g clip-path="url(#09c524c82b)"><path fill="#ffffff" d="M 488.917969 450.433594 C 488.917969 481.335938 513.972656 506.375 544.867188 506.375 L 1182.636719 506.375 C 1213.53125 506.375 1238.578125 481.335938 1238.578125 450.433594 C 1238.578125 419.53125 1213.53125 394.492188 1182.636719 394.492188 L 544.867188 394.492188 C 513.972656 394.492188 488.917969 419.53125 488.917969 450.433594 " fill-opacity="1" fill-rule="nonzero"/></g><g clip-path="url(#001aa3cd75)"><path fill="#ffffff" d="M 339.738281 375.839844 L 336.003906 375.839844 C 294.8125 375.839844 261.410156 409.238281 261.410156 450.433594 C 261.410156 491.628906 294.8125 525.027344 336.003906 525.027344 L 339.738281 525.027344 C 380.929688 525.027344 414.324219 491.628906 414.324219 450.433594 C 414.324219 409.238281 380.929688 375.839844 339.738281 375.839844 " fill-opacity="1" fill-rule="nonzero"/></g></svg>